# xmcd
#
# Track frame offsets:
#	150
#	26840
#	50056
#	70991
#	91630
#	114116
#	134305
#	157983
#	175972
#	194341
#	212639
#	231295
#	254807
#	278176
#	298776
#
# Disc length: 4437 seconds
#
# Revision: 3
# Processed by: cddbd v1.5.1PL0 Copyright (c) Steve Scherf et al.
# Submitted via: dBpowerAMP V4.0
#
DISCID=e011530f
DTITLE=Hellbillies - Cooltur
DYEAR=2002
DGENRE=Country
TTITLE0=Eg æ på gang
TTITLE1=I mårgo har eg fri
TTITLE2=Som ein båt på land
TTITLE3=Hinmann og eg
TTITLE4=Angelina
TTITLE5=Gode spørsmål
TTITLE6=Røta
TTITLE7=Heng i ein tråd
TTITLE8=Den finast eg veit
TTITLE9=På Ål stasjon
TTITLE10=Sur som rognebær
TTITLE11=Drag
TTITLE12=The Claw
TTITLE13=Eg gløymer deg aldri
TTITLE14=Ei krasafaren steinbu
EXTD=
EXTT0=
EXTT1=
EXTT2=
EXTT3=
EXTT4=
EXTT5=
EXTT6=
EXTT7=
EXTT8=
EXTT9=
EXTT10=
EXTT11=
EXTT12=
EXTT13=
EXTT14=
PLAYORDER=
